<?xml version="1.0" encoding="UTF-8" standalone="no"?>
<!-- Generator: Adobe Illustrator 21.1.0, SVG Export Plug-In . SVG Version: 6.00 Build 0)  -->

<svg
   version="1.1"
   id="Calque_1"
   x="0px"
   y="0px"
   viewBox="0 0 155.1 79.4"
   style="enable-background:new 0 0 155.1 79.4;"
   width="450"
   height="230.367505"
   xml:space="preserve"
   sodipodi:docname="xeus-wren-logo.svg"
   inkscape:version="1.2.2 (b0a84865, 2022-12-01)"
   inkscape:export-filename="/home/derthorsten/Documents/blogpost/xeus_wasm/xeus-wren.png"
   inkscape:export-xdpi="696.216"
   inkscape:export-ydpi="696.216"
   xmlns:inkscape="http://www.inkscape.org/namespaces/inkscape"
   xmlns:sodipodi="http://sodipodi.sourceforge.net/DTD/sodipodi-0.dtd"
   xmlns="http://www.w3.org/2000/svg"
   xmlns:svg="http://www.w3.org/2000/svg"><sodipodi:namedview
   id="namedview12"
   pagecolor="#ffffff"
   bordercolor="#666666"
   borderopacity="1.0"
   inkscape:pageshadow="2"
   inkscape:pageopacity="0.0"
   inkscape:pagecheckerboard="0"
   showgrid="false"
   inkscape:zoom="1.4866667"
   inkscape:cx="325.22421"
   inkscape:cy="314.46188"
   inkscape:window-width="2480"
   inkscape:window-height="1387"
   inkscape:window-x="80"
   inkscape:window-y="25"
   inkscape:window-maximized="1"
   inkscape:current-layer="Calque_1"
   inkscape:showpageshadow="2"
   inkscape:deskcolor="#d1d1d1" /><defs
   id="defs21">
		
		
		
		
		
	
	
	
	
	
	

	
	
	
	
	

	
	
</defs>
<style
   type="text/css"
   id="style2">
	.st0{fill:#666666;}
	.st1{fill:#40B3C3;}
	.st2{opacity:0.28;fill:#40B3C3;}
</style>
<path
   id="path4143_4_"
   class="st1"
   d="m 5.5,0 c 0.1,0 0.3,0.1 0.4,0.1 2.7,0.9 5,2.2 5,2.3 2.1,1.5 4,3.4 5.3,5.6 0.5,0.7 5.7,8.6 9.5,14.2 -0.9,1.3 -1.7,2.5 -2.3,3.5 0,-0.1 -0.1,-0.1 -0.1,-0.2 C 19.4,19.7 12.6,9.5 12.1,8.7 11.2,7.3 9.9,6 8.3,5 8.3,5 6.6,3.9 4.4,3.2 3.5,2.9 2,2.6 0,2.4 V 49.2 C 2,49 3.5,48.7 4.4,48.4 6.6,47.7 8.3,46.6 8.3,46.6 10,45.5 11.2,44.2 12.2,42.8 12.7,42.1 19.5,31.8 23.4,26 26.6,21.1 34.7,8.9 35.3,8.1 36.7,5.9 38.5,4 40.6,2.5 c 0,-0.1 2.3,-1.4 5,-2.3 L 46.1,0 Z m 46,2.4 C 49.5,2.6 48,2.9 47.1,3.2 44.9,3.9 43.2,5 43.2,5 41.6,6 40.3,7.3 39.3,8.8 38.8,9.5 32,19.8 28.1,25.6 25,30.4 16.9,42.6 16.3,43.4 14.9,45.6 13.1,47.5 11,49 11,49.1 8.7,50.4 6,51.3 L 5.4,51.4 H 46 l -0.4,-0.1 c -2.7,-0.9 -5,-2.2 -5,-2.3 -2.1,-1.5 -4,-3.4 -5.3,-5.6 -0.5,-0.7 -5.7,-8.6 -9.5,-14.2 0.9,-1.3 1.7,-2.5 2.3,-3.5 0,0.1 0.1,0.1 0.1,0.2 3.9,5.8 10.7,16 11.2,16.8 1,1.4 2.2,2.7 3.9,3.8 0,0 1.7,1.1 3.9,1.8 0.9,0.3 2.4,0.5 4.4,0.8 v 2.3 h 0.1 v -49 z" /><path
   id="path7-3_3_"
   class="st2"
   d="m 28,25.7 c -0.6,0.9 -1.4,2.1 -2.3,3.5 3.8,5.7 9,13.6 9.5,14.2 1.4,2.2 3.2,4.1 5.3,5.6 0,0.1 2.3,1.4 5,2.3 0.2,0 0.4,0.1 0.6,0.1 h 5.3 V 49 C 49.4,48.8 47.9,48.5 47,48.2 44.8,47.5 43.1,46.4 43.1,46.4 41.5,45.4 40.2,44.1 39.2,42.6 38.8,42 32,31.8 28.1,26 v 0 c 0,-0.1 0,-0.2 -0.1,-0.3 M 5.3,0 H 0 V 2.4 C 2,2.6 3.5,2.9 4.4,3.2 6.6,3.9 8.3,5 8.3,5 c 1.6,1 2.9,2.3 3.9,3.8 0.5,0.7 7.3,11 11.2,16.8 v 0 c 0,0.1 0.1,0.1 0.1,0.2 0.6,-0.9 1.4,-2.1 2.3,-3.5 C 22,16.6 16.8,8.7 16.3,8 14.9,5.8 13.1,3.9 11,2.4 11,2.3 8.7,1 6,0.1 5.8,0.1 5.6,0 5.3,0" /><path
   class="st1"
   d="m 144.2,10.3 c -5.3,0 -10.1,2.4 -10.1,8.5 0,6.1 4.3,8 9.6,9.4 4.9,1.4 9,2.4 9,6.9 0,5.4 -3.9,7.1 -8.2,7.1 -3.9,0 -7.6,-1 -10.4,-2.8 l -1.1,2.1 c 3.3,2.2 7.3,3 11.6,3 5.7,0 10.6,-2.5 10.6,-9.4 0,-6.2 -4.8,-7.6 -10.4,-9.2 -5.1,-1.4 -8.1,-2.7 -8.1,-7 0,-4.9 3.4,-6.3 7.7,-6.3 2.8,0 5.6,0.4 7.9,1.7 l 1,-2.2 c -3,-1.4 -6.1,-1.8 -9.1,-1.8 z"
   id="path8" /><path
   class="st1"
   d="m 119.7,10.2 v 18.2 c 0,8.1 -1.2,13.8 -8.8,13.8 h -0.7 c -7.7,0 -8.8,-5.7 -8.8,-13.8 V 10.3 c -0.9,0.5 -1.9,1 -2.6,1.7 v 17.2 c 0,7.2 1.3,15.3 11,15.3 h 1.5 c 9.6,0 11,-8.1 11.1,-15.4 V 11.9 c -0.9,-0.7 -1.8,-1.2 -2.7,-1.7 z"
   id="path10" /><path
   class="st1"
   d="m 76.5,10.3 c -6,0 -13.1,2.2 -13.1,17.2 0,13.9 6.1,17.1 13.6,17.1 4,0 7.6,-0.7 10.6,-2.6 l -1,-2.2 c -3.1,1.8 -6,2.4 -9.6,2.4 -5.9,0 -10.6,-2.1 -11,-12.7 v -1.3 h 22.9 v 0 -0.9 C 89,14.5 84.3,10.3 76.5,10.3 Z M 65.9,25.9 c 0.2,-11.2 5.2,-13.3 10.5,-13.3 5.9,0 9.9,3.1 9.9,13.3 z"
   id="path12" />
<path
   d="m 128.55176,77.099974 c -2.79066,-0.201147 -5.54887,-0.903589 -7.24045,-1.84398 -0.96353,-0.535614 -1.69759,-1.193881 -1.98564,-1.780556 l -0.17139,-0.349064 V 62.177304 51.228208 l 0.13562,-0.275341 c 0.60604,-1.230423 2.54021,-2.339681 5.24019,-3.005241 0.91651,-0.22594 2.23963,-0.450938 3.31905,-0.564392 1.10222,-0.115923 4.02376,-0.09828 5.12323,0.03111 2.9222,0.343314 5.40881,1.111937 6.94119,2.145551 0.59096,0.398596 1.19737,1.036385 1.40279,1.475404 l 0.17615,0.376405 -0.015,10.915953 -0.015,10.916018 -0.14138,0.287234 c -0.0778,0.157967 -0.31264,0.46879 -0.52196,0.69064 -1.2742,1.350737 -4.00737,2.349939 -7.59238,2.775681 -0.73071,0.08678 -3.90516,0.156986 -4.65483,0.102985 z m 5.14275,-9.381894 c -0.0105,-0.02797 -0.42791,-0.399629 -0.92706,-0.825919 -0.49915,-0.426277 -0.92905,-0.795102 -0.95533,-0.81958 -0.0263,-0.02444 0.066,-0.111219 0.20492,-0.192666 0.13899,-0.08142 0.4053,-0.308131 0.59179,-0.503685 0.54537,-0.571868 0.80268,-1.278269 0.80268,-2.203566 0,-0.910907 -0.27752,-1.645891 -0.83336,-2.206924 -0.5602,-0.565515 -1.2034,-0.808484 -2.1401,-0.808484 -1.44383,0 -2.5527,0.842464 -2.90662,2.208335 -0.1218,0.469811 -0.12115,1.419142 0.001,1.835721 0.31918,1.086636 1.18846,1.875817 2.27031,2.061125 0.36611,0.06273 0.4157,0.08978 0.6653,0.36263 0.14833,0.162175 0.45274,0.485898 0.67645,0.719366 l 0.40673,0.424499 h 1.08127 c 0.5947,0 1.07249,-0.02287 1.06176,-0.05084 z m -3.70811,-3.027498 c -0.2603,-0.135736 -0.35871,-0.24106 -0.50717,-0.542827 -0.11461,-0.233076 -0.13424,-0.365636 -0.13554,-0.916528 -0.001,-0.559752 0.0166,-0.680707 0.13625,-0.923767 0.19584,-0.39776 0.46573,-0.586048 0.88324,-0.616237 0.58116,-0.04221 0.91661,0.24306 1.09243,0.928498 0.21556,0.840387 -0.0214,1.733873 -0.53864,2.030386 -0.27133,0.155575 -0.67606,0.173167 -0.93057,0.04051 z m -4.79273,1.559936 c 1.13366,-0.214988 1.7772,-0.874288 1.7772,-1.820705 0,-0.839602 -0.41546,-1.32882 -1.56373,-1.841432 -0.65732,-0.293455 -0.89542,-0.477651 -0.89542,-0.692861 0,-0.178368 0.22596,-0.373804 0.48899,-0.422918 0.25683,-0.04796 0.938,0.07031 1.34024,0.23284 l 0.33717,0.136207 v -0.746354 -0.746393 l -0.36595,-0.08116 c -0.22616,-0.05018 -0.70141,-0.08024 -1.24421,-0.07868 -0.76887,0 -0.91944,0.01869 -1.20878,0.133645 -0.84518,0.335525 -1.24624,0.907079 -1.23983,1.766847 0.007,0.804864 0.43063,1.306929 1.48736,1.758586 0.62352,0.266493 0.87343,0.469418 0.87343,0.709224 0,0.509593 -0.84909,0.572299 -1.74806,0.129124 -0.24619,-0.121413 -0.46738,-0.230567 -0.49153,-0.242669 -0.0242,-0.01176 -0.0439,0.336571 -0.0439,0.774793 0,0.793193 8.5e-4,0.797009 0.14445,0.851691 0.5408,0.205617 1.73608,0.297219 2.35258,0.180302 z m 12.9605,-0.735807 v -0.67335 h -1.02465 -1.02465 v -2.312784 -2.312758 h -0.90755 -0.90754 v 2.986107 2.986121 h 1.93219 1.9322 z m -6.32355,-11.799585 c 1.80347,-0.125072 3.15533,-0.361245 4.34495,-0.758992 1.18513,-0.396257 1.88522,-0.875738 2.04182,-1.3984 0.0604,-0.201409 0.0559,-0.277811 -0.0284,-0.498641 -0.3781,-0.990015 -2.49021,-1.750627 -5.71768,-2.059021 -1.38057,-0.131946 -3.89133,-0.08913 -5.20768,0.08861 -2.00856,0.271382 -3.6386,0.775472 -4.36339,1.349378 -1.46616,1.160999 0.0843,2.437935 3.68999,3.03896 1.56341,0.260612 3.58895,0.352658 5.24034,0.238081 z"
   fill="#00bcf2"
   id="path548"
   style="stroke-width:0.4259;fill:#383838" /></svg>
